<?xml version="1.0" encoding="UTF-8"?>
<svg width="1200pt" height="1200pt" version="1.1" viewBox="0 0 1200 1200" xmlns="http://www.w3.org/2000/svg">
 <path d="m1111.4 378.74-90.281-23.953c-1.6875-40.031-16.359-78.375-41.766-109.36l73.547-71.812c3.5625-3.4688 5.5781-8.2031 5.625-13.172 0.09375-5.0156-1.8281-9.7969-5.3438-13.359-3.4688-3.5625-8.2031-5.5781-13.219-5.625-4.9688-0.09375-9.75 1.8281-13.312 5.3438l-73.875 72.188v-0.046876c-41.156-33.328-94.594-47.531-146.9-39.047l-30.094-85.219c-3.6094-9.5625-14.203-14.531-23.812-11.109-9.6562 3.4219-14.812 13.875-11.578 23.578l29.062 82.359c-24.891 9.3281-47.484 23.906-66.188 42.75l-55.078 55.453-71.25-70.781v-0.046876c-7.4062-7.0781-19.078-6.9375-26.297 0.32813-7.2188 7.2656-7.2656 18.984-0.14062 26.297l71.25 70.781-130.78 131.68-67.828-73.125c-7.0781-7.5938-18.938-8.0156-26.484-0.98438-7.5938 7.0312-8.0625 18.891-1.0312 26.484l68.906 74.25-107.44 108.19-83.719-83.156c-7.4062-7.0781-19.078-6.9375-26.297 0.32812s-7.2656 18.938-0.14062 26.297l83.719 83.156-72.656 73.125c-7.2188 7.3594-13.828 15.328-19.781 23.766l-91.969-59.297c-8.7188-5.3438-20.062-2.7656-25.594 5.8125s-3.1875 20.016 5.25 25.734l93.75 60.422c-8.2031 18.703-13.266 38.625-15 59.016l-115.03 23.859h0.046875c-10.172 2.1094-16.688 12-14.578 22.172 2.1094 10.125 12.047 16.641 22.172 14.531l108.09-22.453 0.046875 0.046875c4.125 35.297 18.375 68.625 41.016 96l-71.625 74.344c-7.2188 7.4531-6.9844 19.359 0.46875 26.531s19.312 6.9844 26.531-0.46875l71.297-74.016c27.375 22.172 60.516 36.094 95.531 40.031l-42.141 94.594c-2.0156 4.5469-2.1562 9.75-0.375 14.391s5.3438 8.3906 9.8906 10.406c4.5 2.0156 9.7031 2.1562 14.344 0.375s8.3906-5.3438 10.406-9.8906l48.797-109.55h-0.046875c51.234-6.2812 98.062-32.109 130.69-72.094l34.969 60.047c5.3438 8.7188 16.641 11.578 25.453 6.4219 8.8125-5.1094 11.953-16.359 6.9844-25.312l-40.031-68.719 94.031-94.688 72.844 102.23v0.046875c6.0938 8.2031 17.625 10.031 25.922 4.0781 8.3438-5.9062 10.406-17.438 4.6406-25.875l-76.594-107.48 84.984-85.594 51.094 50.719v0.046875c7.3594 7.0781 19.078 6.9375 26.297-0.32812s7.2656-18.938 0.14062-26.297l-51.094-50.719 105.8-106.55 59.438 45.703h0.046874c8.2031 6.0469 19.781 4.4062 25.969-3.7031 6.2344-8.1094 4.8281-19.688-3.1406-26.062l-55.641-42.797c39.281-36.609 80.672-81.609 86.672-136.97l82.781 21.984c10.031 2.6719 20.297-3.2812 22.969-13.312 2.625-9.9844-3.3281-20.25-13.312-22.922zm-170.58 89.438-445.26 448.26c-90.141 93.844-255.84 26.016-254.11-104.25-0.23438-39.422 15.281-77.344 43.172-105.23l376.92-379.5c0.09375-0.09375 68.25-68.719 68.297-68.766 143.58-134.72 344.9 65.203 210.94 209.48z"/>
 <path d="m835.87 278.34c-4.9688 0.23438-9.6562 2.3906-13.031 6.0938-3.3281 3.6562-5.1094 8.5312-4.875 13.5l4.875 105.98c0.23438 4.9688 2.4375 9.6562 6.0938 13.031 3.7031 3.3281 8.5312 5.1094 13.5 4.875 5.0156-0.23438 9.6562-2.4375 13.031-6.0938 3.375-3.7031 5.1094-8.5781 4.875-13.547l-4.875-105.98c-0.5625-10.312-9.2812-18.281-19.594-17.859z"/>
 <path d="m725.11 504.94-107.86-18.047c-10.125-1.5-19.547 5.3906-21.234 15.469s4.9688 19.641 15.047 21.562l107.86 18.047c10.219 1.6875 19.875-5.2031 21.609-15.422 1.6875-10.219-5.2031-19.875-15.422-21.609z"/>
 <path d="m459.1 615.42c-7.3594-7.0781-19.078-6.9375-26.297 0.32812-7.2188 7.2188-7.2656 18.938-0.14062 26.297 24.047 31.828 45.797 65.297 65.156 100.17 5.3438 8.7656 16.641 11.625 25.5 6.5156 8.8125-5.1562 11.953-16.406 6.9844-25.359-21.094-37.641-44.859-73.734-71.203-107.95z"/>
 <path d="m423.98 811.92-63.984-21.938h-0.046875c-4.6875-1.6406-9.8438-1.3125-14.344 0.84375-4.4531 2.2031-7.875 6.0938-9.4688 10.781-1.6406 4.7344-1.3125 9.8906 0.89062 14.344s6.0469 7.875 10.781 9.5156c2.5781 0.51562 69.328 24.844 70.078 22.969 9.0469-0.14062 16.734-6.75 18.234-15.703 1.5-9-3.6094-17.719-12.141-20.812z"/>
</svg>
